<svg width="395" height="302" viewBox="0 0 395 302" fill="none" xmlns="http://www.w3.org/2000/svg">
<path fill-rule="evenodd" clip-rule="evenodd" d="M117.2 152.038C113.691 157.505 110.098 162.911 106.403 168.241C102.004 174.596 97.3668 180.766 92.6686 186.881L87.2956 184.081C95.0854 173.573 102.596 162.886 109.856 152.038L117.2 152.038ZM150.046 152.038C143.307 170.303 137.299 188.799 132.387 207.571L127.611 205.083C132.178 186.954 137.563 169.379 143.705 152.038L150.046 152.038ZM221.373 50.9397C220.174 53.5793 218.587 55.9816 216.673 58.1428L196.36 49.3889C195.336 49.0178 194.664 49.8956 194.147 50.6546C187.491 60.4857 181.577 76.6608 176.568 87.8264C174.301 92.882 172.059 97.9525 169.849 103.038L163.199 103.038C167.459 93.487 172.399 84.1784 176.411 74.5315C178.075 70.5243 180.313 65.0644 180.511 60.761C180.741 55.857 177.477 52.7158 173.267 56.2385C168.26 60.4374 163.073 72.5707 159.725 78.6516C155.255 86.7751 150.774 94.9193 146.234 103.038L140.435 103.038C147.002 91.7757 153.362 80.3744 159.542 68.8489C164.568 59.4749 169.391 49.9563 174.131 40.4348C174.045 39.7674 172.464 39.1026 171.84 38.8089C169.863 37.8727 167.441 36.7879 165.422 35.93C162.573 34.7184 159.464 33.9021 156.619 32.6555C156.025 32.6109 154.247 35.2906 152.8 35.4768C149.644 35.8854 142.442 35.2078 139.787 33.5462C138.271 32.5991 133.236 26.8716 132.744 25.3176L132.749 25.3206C132.628 24.9377 132.218 17.7584 132.285 17.3411C132.989 13.0361 134.213 13.0092 136.871 10.6809C137.578 10.0662 140.344 7.28541 140.692 7.14773C141.279 6.92005 142.098 7.44004 142.803 7.39089C145.601 7.19483 147.767 6.35708 150.666 7.48757C154.685 9.04713 158.722 13.4318 161.067 16.9827C162.278 18.8132 160.854 20.7687 161.536 21.4768C161.831 21.782 165.047 23.775 165.774 24.2034C168.637 25.895 173.2 28.4049 176.216 29.6399C179.71 31.075 179.998 29.8758 181.441 26.8098C185.223 18.7996 188.255 10.3689 191.959 2.3157C192.271 1.62625 192.711 0.560146 193.329 0.149681C194.412 -0.582757 200.071 1.58269 201.522 2.21023C203.439 3.03838 213.48 8.07084 214.211 9.38015C214.392 9.69936 214.35 11.6714 214.197 12.1409C212.69 16.7816 208.288 21.6105 207.162 26.5657L199.327 39.4397L199.757 40.7737C206.713 44.5334 214.188 47.5464 221.373 50.9397ZM189.701 33.7844C188.302 36.6926 186.567 39.517 185.251 42.4456C184.832 43.374 184.667 44.6002 184.265 45.5979C184.161 45.8583 181.962 48.6768 183.406 48.8216C185.397 49.0205 185.165 46.3777 185.605 45.2073C186.249 43.4994 186.423 42.542 186.923 41.0491C187.842 38.2842 188.91 36.0006 190.664 33.6341L189.701 33.7844ZM212.239 10.0149C211.648 9.44156 211.18 9.86065 210.848 10.4485C209.633 12.613 209.318 15.3609 207.861 17.2151C207.649 17.4838 207.705 18.0943 207.552 18.1585C207.501 18.1771 207.033 17.6925 206.615 17.471C205.847 17.0665 206.318 17.1967 206.612 16.5745C206.463 15.7817 205.95 16.8342 205.882 17.096C205.549 18.3905 206.124 18.9193 205.713 20.054C204.138 24.4051 200.125 29.2876 198.6 33.6126C198.293 34.4885 198.66 35.4981 198.265 36.0501C198.142 36.2189 197.452 35.8329 197.34 36.0442C196.273 38.0756 196.846 36.6736 196.269 37.2991C195.274 38.3806 194.276 43.2853 193.532 45.0755C193.233 45.7894 190.21 51.0634 190.545 51.2405C192.099 50.0162 192.376 48.0922 193.138 46.6428C195.629 41.8992 198.094 36.5842 200.744 32.0384C202.145 29.6354 207.884 22.3799 208.381 20.6331C208.511 20.172 207.959 19.5674 208.075 19.0071C208.301 17.9388 210.188 15.6661 210.678 14.7161C211.366 13.3856 211.136 11.328 212.239 10.0149Z" fill="#CB460C"/>
<path d="M172.008 218.728C167.069 213.557 159.461 211.114 154.996 205.705C161.095 203.225 170.162 203.076 167.056 193.786C166.142 191.05 157.103 195.492 155.952 196.174C152.417 198.274 149.259 201.117 145.488 202.805C139.371 205.546 136.786 201.827 131.799 198.429C125.977 194.465 119.693 191.17 113.061 188.799C107.965 186.979 102.687 185.7 97.5393 184.016C91.1549 181.928 84.9996 179.222 78.9235 176.387C76.6404 175.319 73.0715 174.5 72.2159 171.81C71.6751 170.11 72.5657 168.205 72.3842 166.434C71.9622 162.3 67.8671 144.71 61.4616 150.206C56.1246 154.792 65.5265 161.405 62.4547 166.626L51.3203 161.681C48.4221 160.391 33.1634 162.041 32.3185 165.653C30.7169 172.506 44.6621 170.054 47.985 170.467C53.3051 171.132 59.1307 173.167 62.5568 177.503L60.586 183.586C57.2542 181.963 53.7303 180.526 50.0165 180.107C47.5981 179.836 36.6162 181.297 33.9093 181.874C28.6345 183.008 29.2067 189.057 32.7652 190.695C36.5276 192.423 44.1876 186.926 49.2482 188.299C56.3106 190.214 64.0352 195.479 69.1153 200.705C60.072 207.377 54.6521 201.684 46.1726 199.212C44.2302 198.649 27.7075 197.287 26.8937 197.814C24.4084 199.437 26.2693 204.42 28.5932 205.742C32.1284 207.756 46.0118 205.631 46.9556 209.832C43.2856 216.481 34.3918 218.248 31.4747 225.571L37.5141 229.79L55.3092 215.694C61.9022 214.726 65.613 208.539 72.6439 209.136C73.4957 212.919 55.8694 229.296 51.8136 231.342C48.2496 233.139 41.5909 232.914 42.3348 238.442C42.8765 242.479 45.6112 242.339 48.9983 241.48C51.9871 240.721 60.3783 235.2 63.1397 233.148C72.1913 226.406 79.2724 217.187 82.396 206.198C87.2304 205.177 92.953 203.301 97.6168 205.674C94.8519 211.759 95.0289 219.301 89.4837 223.819L81.6538 217.994C72.6646 227.674 88.2289 226.838 84.6291 235.076C81.5014 242.232 75.6465 239.384 69.7587 240.174C66.2626 240.638 51.2934 246.717 56.2469 251.01C62.5522 256.467 68.9821 245.718 75.3408 249.233C76.9998 250.752 72.6496 257.788 71.8461 260.109C71.4946 261.131 70.1983 266.695 70.4613 267.077C73.6135 270.049 75.3229 266.886 78.6229 268.329C81.8555 258.258 84.5592 247.299 92.5527 239.813C92.9489 243.702 95.0607 248.557 94.8354 252.369C94.49 258.147 88.2462 268.135 96.242 270.471C101.668 263.658 103.196 255.799 102.073 247.338C101.571 243.571 96.6085 230.763 97.0596 229.112C97.5331 227.361 99.6578 226.061 100.491 224.344C102.476 220.242 102.547 214.734 105.278 210.276C105.726 209.546 105.611 208.797 106.709 209.731C108.447 211.213 114.879 220.113 114.9 222.263C114.919 224.431 109.675 230.701 108.369 234.287C105.665 241.691 106.053 269.055 111.763 274.392C114.069 276.548 115.689 276.713 117.434 273.814C119.833 269.827 115.881 261.276 115.217 256.272C114.041 247.429 114.67 239.374 119.304 231.475C121.337 230.304 125.44 253.273 125.627 255.058C126.289 261.297 122.978 272.371 133.247 270.685C137.542 263.807 132.406 255.93 134.289 248.649C140.743 249.922 145.048 260.741 151.944 258.92C159.726 256.862 150.356 249.685 147.387 247.237C142.068 242.846 140.279 242.545 134.522 239.934C128.709 237.297 126.917 230.378 127.24 224.503C134.866 229.089 146.035 228.054 152.368 234.681C155.14 237.584 155.449 242.6 157.387 245.055C160.713 249.265 167.072 247.264 164.906 241.596C161.312 232.193 153.484 224.377 144.637 219.746L146.576 213.679C152.762 217.143 159.026 216.887 164.049 222.338C166.862 225.39 168.043 232.525 173.627 230.916C178.997 229.372 174.494 221.325 171.998 218.711L172.008 218.728Z" fill="#CB460C"/>
<path d="M354.623 123.124C354.623 113.566 350.912 110.983 340.537 110.983C336.703 110.983 332.8 111.422 329.089 112.178L327.516 121.111C330.093 119.853 335.253 118.72 339.527 118.72C344.996 118.72 347.449 119.723 347.449 124.258V124.759C345.374 123.88 342.165 123.124 339.018 123.124C333.04 123.124 326.252 125.515 326.252 133.19C326.252 139.917 331.281 143.188 337.005 143.188C341.787 143.188 345.807 141.051 347.511 136.901V141.992H358.079C356.567 139.793 354.623 134.07 354.623 127.714V123.124ZM347.456 130.923C347.27 133.816 344.123 135.643 339.657 135.643C335.885 135.643 333.81 134.132 333.81 131.933C333.81 129.418 336.387 128.284 339.911 128.284C343.182 128.284 346.013 128.978 347.456 129.665V130.923Z" fill="#CB460C"/>
<path d="M380.409 141.993H394.495C392.984 139.794 391.039 134.07 391.039 127.714V124.189C391.039 115.951 387.954 111.23 380.725 111.23C375.187 111.23 371.855 114.625 370.597 118.906L370.913 112.179H360.098C361.672 114.377 363.554 120.101 363.554 126.457V127.714C363.554 134.07 361.665 139.794 360.098 141.993H374.184C372.611 139.794 370.728 134.07 370.728 127.714V127.275C370.728 122.623 373.181 119.6 377.331 119.6C381.481 119.6 383.872 122.616 383.872 127.275V127.714C383.872 134.07 381.983 139.794 380.416 141.993H380.409Z" fill="#CB460C"/>
<path d="M62.3654 112.115C62.3654 109.662 65.1344 108.088 69.6007 108.088C74.0669 108.088 79.5364 109.092 83.4392 111.174L84.0713 101.107C79.1035 99.8499 74.6373 99.4102 70.171 99.4102C59.9193 99.4102 53.5634 104.193 53.5634 111.49C53.5634 126.084 76.142 122.119 76.142 129.602C76.142 132.873 73.0569 134.254 68.2814 134.254C62.4341 134.254 56.2707 132.68 53.0618 130.104C52.306 137.964 58.6 142.932 69.3533 142.932C78.9798 142.932 84.9508 138.026 84.9508 129.973C84.9508 115.07 62.3723 119.282 62.3723 112.108L62.3654 112.115Z" fill="#CB460C"/>
<path d="M121.422 112.178H107.268C108.903 114.377 110.724 120.1 110.724 126.456V126.896C110.724 131.548 108.333 134.571 104.183 134.571C100.033 134.571 97.6414 131.555 97.6414 126.896V126.456C97.6414 120.1 99.4623 114.377 101.098 112.178H86.943C88.5165 114.377 90.3992 120.1 90.3992 126.456V129.981C90.3992 138.22 93.4844 142.94 100.775 142.94C106.244 142.94 109.583 139.546 110.903 135.265L110.587 141.992H121.402C119.767 139.793 117.946 134.069 117.946 127.714V126.456C117.946 120.1 119.767 114.377 121.402 112.178H121.422Z" fill="#CB460C"/>
<path d="M154.631 124.195C154.631 115.957 151.546 111.236 144.317 111.236C138.779 111.236 135.447 114.63 134.189 118.911L134.505 112.184H123.69C125.264 114.383 127.146 120.107 127.146 126.463V127.72C127.146 134.076 125.257 139.799 123.69 141.998H137.776C136.202 139.799 134.32 134.076 134.32 127.72V127.28C134.32 122.628 136.773 119.605 140.923 119.605C145.073 119.605 147.464 122.622 147.464 127.28V127.72C147.464 134.076 145.575 139.799 144.008 141.998H158.094C156.582 139.799 154.638 134.076 154.638 127.72V124.195H154.631Z" fill="#CB460C"/>
<path d="M191.612 119.227C191.612 109.731 193.123 100.798 194.188 98.3455H180.92C182.239 100.613 183.937 107.594 184.191 117.214C182.741 113.881 179.539 110.858 174.317 110.858C166.58 110.858 160.795 117.337 160.795 127.404C160.795 137.47 166.333 143.317 173.692 143.317C180.171 143.317 183.689 138.597 184.445 134.515L184.067 141.998H194.882C193.501 139.545 191.612 131.622 191.612 121.116V119.227ZM176.262 135.01C171.479 135.01 168.463 131.863 168.463 127.087C168.463 122.312 171.479 119.165 176.262 119.165C180.79 119.165 183.998 122.312 183.998 127.087C183.998 131.863 180.79 135.01 176.262 135.01Z" fill="#CB460C"/>
<path d="M226.579 123.124C226.579 113.567 222.868 110.983 212.493 110.983C208.659 110.983 204.756 111.423 201.045 112.179L199.472 121.111C202.049 119.854 207.209 118.72 211.483 118.72C216.952 118.72 219.405 119.723 219.405 124.258V124.76C217.33 123.88 214.121 123.124 210.974 123.124C204.996 123.124 198.208 125.515 198.208 133.19C198.208 139.917 203.237 143.188 208.961 143.188C213.743 143.188 217.763 141.051 219.467 136.901V141.992H230.035C228.523 139.794 226.579 134.07 226.579 127.714V123.124ZM219.405 130.923C219.22 133.816 216.073 135.643 211.606 135.643C207.834 135.643 205.759 134.132 205.759 131.933C205.759 129.418 208.336 128.285 211.861 128.285C215.131 128.285 217.962 128.978 219.405 129.666V130.923Z" fill="#CB460C"/>
<path d="M242.486 120.484L242.864 112.184H232.049C233.622 114.383 235.505 120.106 235.505 126.462V127.719C235.505 134.075 233.615 139.799 232.049 141.998H246.327C244.63 139.984 242.678 134.824 242.678 129.293V128.977C242.678 123.947 245.447 120.677 249.597 120.677C251.295 120.677 252.992 121.24 254.318 122.25L255.575 111.806C254.819 111.49 253.562 111.242 252.366 111.242C246.705 111.242 243.558 115.516 242.493 120.491L242.486 120.484Z" fill="#CB460C"/>
<path d="M281.393 131.151C276.741 131.151 271.581 132.601 268.434 132.601C266.359 132.601 265.479 131.529 265.479 130.272C265.479 129.269 266.043 128.321 266.991 127.819C268.881 128.382 271.079 128.698 273.471 128.698C282.527 128.698 288.374 124.425 288.374 117.945C288.374 113.355 286.045 109.768 282.018 107.817C280.568 106.999 280.005 105.927 280.005 104.801C280.005 103.481 281.201 102.725 282.712 102.725C285.042 102.725 287.179 103.667 288.621 104.862L288.745 96.3697C287.364 95.6757 284.842 95.1741 282.389 95.1741C277.861 95.1741 274.652 97.5034 274.652 101.654C274.652 103.351 275.285 104.862 276.288 106.182C275.346 106.058 274.467 105.989 273.457 105.989C264.401 105.989 258.553 110.641 258.553 117.938C258.553 121.023 259.873 123.6 262.264 125.483C259.934 127.118 258.553 129.757 258.553 132.587C258.553 137.116 262.264 139.947 267.486 139.947C272.708 139.947 277.105 138.435 280.507 138.435C282.204 138.435 283.145 138.936 283.145 140.386C283.145 142.777 279.751 144.475 273.017 144.475C266.283 144.475 261.192 142.716 258.423 140.448C258.169 147.745 264.779 151.772 274.02 151.772C283.262 151.772 290.058 147.498 290.058 139.692C290.058 134.346 286.849 131.138 281.379 131.138L281.393 131.151ZM273.464 113.163C277.992 113.163 281.139 114.798 281.139 117.945C281.139 121.092 277.992 122.975 273.464 122.975C268.936 122.975 265.789 121.085 265.789 117.945C265.789 114.805 268.997 113.163 273.464 113.163Z" fill="#CB460C"/>
<path d="M320.095 123.124C320.095 113.566 316.385 110.983 306.009 110.983C302.175 110.983 298.272 111.422 294.562 112.178L292.989 121.111C295.565 119.853 300.725 118.72 304.999 118.72C310.469 118.72 312.922 119.723 312.922 124.258V124.759C310.847 123.88 307.638 123.124 304.491 123.124C298.513 123.124 291.724 125.515 291.724 133.19C291.724 139.917 296.754 143.188 302.478 143.188C307.26 143.188 311.28 141.051 312.984 136.901V141.992H323.551C322.04 139.793 320.095 134.07 320.095 127.714V123.124ZM312.929 130.923C312.743 133.816 309.596 135.643 305.13 135.643C301.358 135.643 299.283 134.132 299.283 131.933C299.283 129.418 301.859 128.284 305.384 128.284C308.655 128.284 311.486 128.978 312.929 129.665V130.923Z" fill="#CB460C"/>
<path d="M284.298 194.105C282.908 194.105 281.771 194.538 280.888 195.404C280.004 196.226 279.567 197.354 279.567 198.784C279.567 200.214 280.009 201.276 280.888 202.098C281.771 202.964 282.903 203.397 284.298 203.397C285.693 203.397 286.804 202.986 287.639 202.164C288.518 201.342 288.959 200.214 288.959 198.784C288.959 197.354 288.518 196.226 287.639 195.404C286.804 194.538 285.689 194.105 284.298 194.105Z" fill="#CB460C"/>
<path d="M303.643 161.287H178.001L184.822 172.336C185.194 172.249 185.679 172.183 186.282 172.14C186.886 172.052 187.559 172.008 188.302 172.008C189.417 172.008 190.484 172.183 191.503 172.529C192.57 172.874 193.497 173.46 194.289 174.282C195.124 175.061 195.797 176.145 196.309 177.531C196.615 178.266 196.847 179.114 197.013 180.072C196.462 181.401 195.924 182.599 195.404 183.64C194.848 184.811 194.245 185.721 193.593 186.368C192.942 187.02 192.203 187.343 191.368 187.343C190.764 187.343 190.183 187.19 189.627 186.888C189.116 186.587 188.582 186.088 188.027 185.393C187.515 184.698 186.938 183.705 186.287 182.402L182.876 184.029C183.759 186.281 184.73 188.275 185.797 190.006C186.864 191.694 188.023 193.041 189.278 194.038C190.576 194.991 192.015 195.467 193.593 195.467C194.892 195.467 195.981 195.144 196.864 194.492C197.747 193.797 198.556 192.866 199.3 191.698C200.087 190.487 200.852 189.057 201.595 187.409C202.29 185.891 202.872 184.702 203.335 183.832C203.847 182.922 204.332 182.271 204.796 181.882C205.259 181.449 205.745 181.23 206.256 181.23C206.812 181.23 207.323 181.471 207.787 181.947C208.298 182.38 208.762 183.075 209.177 184.029C209.409 184.558 209.641 185.179 209.872 185.883V199.547C208.666 199.298 207.437 199.167 206.186 199.167C203.309 199.167 201.084 199.862 199.505 201.248C197.927 202.678 197.139 204.541 197.139 206.836C197.139 209.132 197.905 211.169 199.435 212.687C200.966 214.204 202.986 214.96 205.491 214.96C207.673 214.96 209.527 214.44 211.057 213.399C212.54 212.402 213.677 211.06 214.468 209.368C214.862 208.528 215.155 207.658 215.351 206.762C215.736 206.989 216.112 207.225 216.484 207.483C219.636 209.691 222.4 212.726 224.766 216.583L227.686 214.956C226.759 212.962 225.553 211.012 224.066 209.106C222.627 207.243 220.957 205.551 219.055 204.038C218.049 203.259 217.004 202.56 215.92 201.939L215.496 197.684C214.612 188.808 214.595 179.87 215.439 170.994L215.92 165.957H241.609V178.183C241.517 177.964 241.429 177.741 241.329 177.527C240.586 175.839 239.637 174.365 238.474 173.106C237.359 171.807 236.108 170.81 234.718 170.115C233.327 169.381 231.819 169.009 230.196 169.009C227.783 169.009 225.881 169.682 224.49 171.025C223.1 172.323 222.404 174.142 222.404 176.486C222.404 178.48 223.008 180.124 224.215 181.427C225.465 182.726 227.135 183.377 229.226 183.377C231.316 183.377 232.728 182.791 233.747 181.624C234.766 180.452 235.277 179.088 235.277 177.531C235.277 177.212 235.247 176.91 235.203 176.613C235.881 176.853 236.51 177.264 237.087 177.859C238.063 178.812 238.92 180.22 239.663 182.083C240.45 183.902 241.123 186.114 241.679 188.712L247.595 192.547C249.449 190.553 251.281 188.668 253.091 186.893C254.945 185.074 256.804 183.382 258.657 181.825C259.322 181.252 259.996 180.697 260.673 180.15C260.302 181.576 260.026 183.045 259.842 184.558C259.659 186.031 259.563 187.614 259.563 189.302C259.563 192.42 259.978 195.345 260.813 198.078C261.648 200.763 262.623 203.255 263.734 205.551L267.145 204.318C266.633 202.757 266.218 201.327 265.894 200.028C265.614 198.686 265.409 197.387 265.269 196.128C265.177 194.873 265.129 193.548 265.129 192.162C265.129 189.302 265.501 186.486 266.244 183.714C267.031 180.898 268.124 178.274 269.515 175.848L261.858 169.673C260.42 170.539 260.271 171.492 258.784 172.533C257.346 173.574 256.371 174.658 254.976 175.782C253.585 176.866 252.724 177.99 251.517 179.162C250.935 179.726 248.194 182.914 247.66 183.473V165.966H293.752V168.335C291.295 169.114 288.833 171.781 286.375 172.848C283.73 173.976 281.596 175.209 279.091 176.552C276.585 177.894 273.83 177.575 271.697 179.092L276.082 188.515C278.68 188.992 281.141 189.748 283.459 190.789C285.776 191.786 287.888 193.106 289.79 194.755C291.741 196.359 293.433 198.349 294.871 200.732L299.187 203.268L299.812 203.137L299.222 190.268C299.034 186.171 299.038 182.07 299.235 177.973L299.812 165.961H306.354L303.638 161.282L303.643 161.287ZM208.827 176.818C208.04 175.345 207.205 174.282 206.322 173.635C205.487 172.94 204.56 172.594 203.537 172.594C202.75 172.594 202.006 172.852 201.311 173.373C200.62 173.845 199.929 174.601 199.234 175.629C199.081 174.75 198.893 173.928 198.666 173.176C198.202 171.488 197.459 170.058 196.44 168.886C195.421 167.675 194.052 166.722 192.334 166.027C192.282 166.005 192.229 165.983 192.177 165.961H209.868V171.812C209.868 172.984 209.89 174.217 209.938 175.515C210.03 176.77 210.122 178.03 210.218 179.284C210.24 179.459 210.253 179.634 210.275 179.809C209.776 178.664 209.295 177.662 208.827 176.814V176.818ZM209.667 206.513C209.155 207.684 208.508 208.506 207.717 208.983C206.93 209.46 206.095 209.7 205.211 209.7C204.284 209.7 203.541 209.46 202.986 208.983C202.43 208.55 202.15 207.899 202.15 207.033C202.15 206.167 202.452 205.472 203.056 204.952C203.659 204.475 204.586 204.239 205.841 204.239C207.336 204.239 208.771 204.396 210.152 204.707C210.039 205.384 209.877 205.988 209.671 206.513H209.667ZM291.185 189.298C289.655 187.61 287.984 186.219 286.174 185.139C284.841 184.309 283.507 183.631 282.173 183.11C283.214 182.376 284.311 181.689 285.479 181.047C287.057 180.181 288.658 179.398 290.28 178.707C291.491 178.191 292.65 177.719 293.761 177.299V192.958C293.013 191.589 292.156 190.369 291.185 189.298Z" fill="#CB460C"/>
<path d="M392.236 161.286H352.992L352.437 157.709L348.121 155.37L347.636 155.567V160.377C347.636 161.374 347.684 162.563 347.775 163.954C347.806 164.242 347.837 164.522 347.863 164.802C347.727 164.496 347.583 164.212 347.426 163.954C346.914 163 346.289 162.327 345.545 161.938C344.85 161.505 344.015 161.286 343.04 161.286H338.339L337.784 157.709L333.468 155.37L332.983 155.567V163.368C332.983 164.666 333.005 165.947 333.053 167.202C333.101 168.457 333.171 169.651 333.263 170.775C333.285 171.037 333.307 171.286 333.328 171.54C332.406 169.511 331.361 167.78 330.198 166.354C328.619 164.36 326.905 162.887 325.047 161.933C323.193 160.98 321.221 160.504 319.131 160.504C316.162 160.504 313.306 161.566 310.569 163.687C307.88 165.812 305.676 169.083 303.958 173.499L311.054 178.895C311.938 177.898 312.978 177.076 314.185 176.424C315.392 175.773 316.573 175.449 317.736 175.449C318.899 175.449 319.66 175.707 320.171 176.227C320.727 176.748 321.006 177.46 321.006 178.37C321.006 179.8 320.219 181.098 318.641 182.27C317.062 183.398 314.789 184.435 311.82 185.388L316.761 193.123C319.542 191.868 321.724 190.521 323.302 189.092C324.881 187.618 325.991 186.079 326.643 184.478C327.338 182.83 327.688 181.142 327.688 179.411C327.688 176.984 326.944 174.968 325.462 173.368C324.024 171.719 322.008 170.897 319.406 170.897C317.967 170.897 316.669 171.116 315.51 171.549C315.213 171.654 314.924 171.772 314.649 171.899C314.885 171.457 315.143 171.033 315.44 170.639C316.227 169.555 317.132 168.689 318.155 168.038C319.222 167.386 320.359 167.062 321.566 167.062C322.913 167.062 324.255 167.495 325.602 168.361C326.949 169.183 328.291 170.569 329.638 172.519C330.775 174.111 331.864 176.175 332.909 178.694V201.637L338.405 203.976L338.96 203.845L338.007 192.472C337.478 186.153 337.539 179.795 338.186 173.49L338.96 165.956H344.216C345.099 165.956 345.817 166.411 346.372 167.32C346.927 168.23 347.299 169.358 347.487 170.7V201.637L353.053 203.976L353.539 203.845L352.502 190.53C352.026 184.413 352.135 178.261 352.83 172.165L353.539 165.956H381.855V178.37C381.855 179.581 381.877 180.884 381.925 182.27C381.995 183.315 382.065 184.33 382.135 185.327C382.118 185.327 382.144 185.327 382.127 185.327C381.554 183.573 380.789 181.947 379.835 180.447C379 179.017 378.003 177.762 376.844 176.678C375.686 175.593 374.361 174.749 372.878 174.142C371.396 173.534 369.77 173.232 368.007 173.232C365.502 173.232 363.416 173.967 361.746 175.44C360.076 176.914 359.24 178.995 359.24 181.68C359.24 184.019 359.957 185.97 361.396 187.531C362.883 189.092 364.829 189.87 367.242 189.87C368.821 189.87 370.119 189.568 371.138 188.96C372.205 188.309 372.992 187.487 373.504 186.49C374.059 185.449 374.339 184.325 374.339 183.11C374.339 182.983 374.326 182.861 374.317 182.734C375.021 182.909 375.681 183.25 376.285 183.761C377.26 184.496 378.117 185.515 378.86 186.818C379.604 188.073 380.251 189.503 380.81 191.107C381.366 192.668 381.829 194.269 382.201 195.917C382.621 197.522 382.922 199.035 383.106 200.469L387.282 203.394L387.837 203.263L387.028 192.681C386.403 184.527 386.582 176.332 387.566 168.212L387.837 165.956H394.864L392.218 161.278L392.236 161.286Z" fill="#CB460C"/>
</svg>
